<!-- Apple Icon -->
<svg xmlns="http://www.w3.org/2000/svg" width="24" height="24" viewBox="0 0 384 512">
    <path fill="#000000" d="M318.7 268.6c-.3-49.1 40-72.6 41.9-73.8-22.9-33.4-58.5-38-71.2-38.6-30.3-3.1-59.2 17.8-74.6 17.8s-39.1-17.4-64.4-17c-33.2.5-63.9 19.3-81 49.2-34.5 59.8-8.8 148.3 24.7 196.7 16.4 24 35.9 50.9 61.5 49.9 24.5-1 33.8-16.1 63.4-16.1s37.7 16.1 63.6 15.6c26.3-.5 42.9-24.3 59.2-48.5 18.6-27.1 26.3-53.3 26.6-54.7-.6-.2-50.8-19.5-51.1-77zM250.2 86.1c13.8-17 23.1-40.7 20.5-64.1-19.8.8-43.9 13.2-58.1 30.1-12.7 14.6-23.8 38.1-20.8 60.4 21.9 1.7 44.6-11.1 58.4-26.4z"/>
</svg>

