<!-- Google Icon -->
<svg xmlns="http://www.w3.org/2000/svg" width="24" height="24" viewBox="0 0 533.5 544.3">
    <path fill="#4285F4" d="M533.5 278.4c0-18.7-1.5-37-4.3-54.7H272v103.6h146.9c-6.4 34.8-25.6 64.3-54.6 84.1v69h88.4c51.7-47.7 80.8-118 80.8-202z"/>
    <path fill="#34A853" d="M272 544.3c73.6 0 135.3-24.4 180.4-66.2l-88.4-69c-24.6 16.5-56.2 26.4-92 26.4-70.7 0-130.7-47.7-152.1-111.9H27.6v70.3C72.6 483.9 165.8 544.3 272 544.3z"/>
    <path fill="#FBBC04" d="M119.9 323.6c-10.7-31.7-10.7-65.5 0-97.2V156H27.6c-34.8 69.6-34.8 152 0 221.6l92.3-54z"/>
    <path fill="#EA4335" d="M272 107.7c39.9 0 75.7 13.7 104 40.5l78-78.1C407.2 24.4 345.5 0 272 0 165.8 0 72.6 60.4 27.6 156l92.3 70.4C141.3 155.4 201.3 107.7 272 107.7z"/>
</svg>
